<svg width="214" height="77" viewBox="0 0 214 77" fill="none" xmlns="http://www.w3.org/2000/svg">
<path d="M91.792 4C103.508 4 113.585 14.4696 113.585 28.1299C113.585 41.7902 103.508 52.2598 91.792 52.2598C80.0762 52.2596 70 41.7901 70 28.1299C70 14.4697 80.0762 4.00021 91.792 4Z" stroke="#38BDF8" stroke-width="8"/>
<line x1="107.908" y1="39.2535" x2="124.908" y2="57.2535" stroke="#38BDF8" stroke-width="8"/>
<rect x="0.0877745" y="1.46" width="1.99035" height="4.81437" transform="matrix(0.721089 0.692842 -0.632889 0.774243 114.255 48.2688)" stroke="#38BDF8" stroke-width="1.99035"/>
<rect x="0.0462985" y="0.733407" width="2.98069" height="5.80471" transform="matrix(0.723163 0.690678 -0.630566 0.776136 118.763 52.134)" fill="#38BDF8" stroke="#38BDF8"/>
<path d="M1.344 55C1.376 54.488 1.392 53.624 1.392 52.408C1.424 51.16 1.44 49.704 1.44 48.04C1.44 46.344 1.44 44.488 1.44 42.472C1.44 40.456 1.44 38.392 1.44 36.28C1.44 34.168 1.44 32.072 1.44 29.992C1.44 27.88 1.44 25.912 1.44 24.088C1.44 22.264 1.424 20.632 1.392 19.192C1.392 17.752 1.376 16.616 1.344 15.784C2.592 15.784 3.968 15.784 5.472 15.784C6.976 15.752 8.512 15.736 10.08 15.736C11.648 15.704 13.184 15.672 14.688 15.64C16.192 15.608 17.6 15.576 18.912 15.544C18.944 16.024 18.96 16.488 18.96 16.936C18.96 17.384 18.96 17.832 18.96 18.28C18.96 19.208 18.944 20.168 18.912 21.16C18.88 22.152 18.832 23.144 18.768 24.136H9.12V31.336H17.136V39.496H9.12C9.12 41.096 9.12 42.68 9.12 44.248C9.152 45.816 9.168 47.288 9.168 48.664C9.2 50.04 9.232 51.288 9.264 52.408C9.296 53.496 9.328 54.36 9.36 55H1.344ZM42.6664 55H36.0904V52.648C34.9384 53.576 33.7224 54.296 32.4424 54.808C31.1624 55.288 29.9144 55.528 28.6984 55.528C27.2584 55.528 25.9304 55.176 24.7144 54.472C23.4984 53.768 22.4424 52.792 21.5464 51.544C20.6824 50.264 19.9944 48.744 19.4824 46.984C18.9704 45.224 18.7144 43.304 18.7144 41.224C18.7144 39.048 18.9864 37.016 19.5304 35.128C20.0744 33.24 20.8104 31.608 21.7384 30.232C22.6984 28.824 23.8184 27.736 25.0984 26.968C26.4104 26.168 27.8184 25.768 29.3224 25.768C30.6344 25.768 31.8824 26.056 33.0664 26.632C34.2504 27.176 35.2584 27.864 36.0904 28.696V26.296H42.9064L42.6664 55ZM27.8824 37.672C27.8824 38.984 28.2344 40.04 28.9384 40.84C29.6744 41.64 30.6024 42.04 31.7224 42.04C32.9384 42.04 33.9624 41.608 34.7944 40.744C35.6584 39.88 36.0904 38.776 36.0904 37.432C36.0904 36.824 35.9784 36.248 35.7544 35.704C35.5624 35.16 35.2744 34.696 34.8904 34.312C34.5064 33.896 34.0584 33.576 33.5464 33.352C33.0344 33.128 32.4904 33.016 31.9144 33.016C30.7624 33.016 29.8024 33.448 29.0344 34.312C28.2664 35.176 27.8824 36.296 27.8824 37.672ZM52.1756 26.296V28.888C52.9436 27.928 53.8716 27.176 54.9596 26.632C56.0796 26.056 57.2156 25.768 58.3676 25.768C59.7756 25.768 61.0236 26.152 62.1116 26.92C63.1996 27.688 63.9196 28.6 64.2716 29.656C64.4316 30.136 64.5596 30.808 64.6556 31.672C64.7836 32.504 64.8476 33.448 64.8476 34.504V55H57.7916V41.08C57.7916 39.64 57.5196 38.68 56.9756 38.2C56.4636 37.688 55.8556 37.432 55.1516 37.432C54.2236 37.432 53.4876 37.736 52.9436 38.344C52.4316 38.92 52.1756 39.672 52.1756 40.6V55H45.2156C45.2156 53.944 45.2156 52.84 45.2156 51.688C45.2476 50.504 45.2636 49.336 45.2636 48.184C45.2636 47 45.2636 45.832 45.2636 44.68C45.2636 43.528 45.2636 42.44 45.2636 41.416C45.2636 40.808 45.2636 39.896 45.2636 38.68C45.2636 37.464 45.2476 36.136 45.2156 34.696C45.2156 33.256 45.2156 31.784 45.2156 30.28C45.2156 28.776 45.2156 27.448 45.2156 26.296H52.1756Z" fill="white"/>
<path d="M141.824 55V52.456C141.056 53.384 140.128 54.136 139.04 54.712C137.952 55.256 136.848 55.528 135.728 55.528C135.024 55.528 134.336 55.416 133.664 55.192C133.024 55 132.432 54.728 131.888 54.376C131.344 54.024 130.864 53.608 130.448 53.128C130.064 52.616 129.776 52.072 129.584 51.496C129.456 51.048 129.344 50.408 129.248 49.576C129.184 48.712 129.152 47.8 129.152 46.84V26.296H136.208V40.696C136.208 41.656 136.432 42.424 136.88 43C137.328 43.544 137.936 43.816 138.704 43.816C139.088 43.816 139.472 43.736 139.856 43.576C140.272 43.416 140.624 43.208 140.912 42.952C141.232 42.696 141.488 42.392 141.68 42.04C141.872 41.688 141.968 41.32 141.968 40.936V26.296H149.024C148.992 27.352 148.96 28.472 148.928 29.656C148.896 30.808 148.864 31.976 148.832 33.16C148.8 34.312 148.768 35.464 148.736 36.616C148.736 37.768 148.736 38.856 148.736 39.88C148.736 40.488 148.736 41.4 148.736 42.616C148.736 43.832 148.736 45.16 148.736 46.6C148.768 48.04 148.784 49.512 148.784 51.016C148.784 52.52 148.784 53.848 148.784 55H141.824ZM161.071 39.88C161.487 41.256 162.175 42.376 163.135 43.24C164.095 44.104 165.423 44.536 167.119 44.536C167.631 44.536 168.175 44.504 168.751 44.44C169.359 44.344 169.951 44.232 170.527 44.104C171.103 43.944 171.647 43.784 172.159 43.624C172.671 43.432 173.119 43.256 173.503 43.096C173.567 44.024 173.599 45.016 173.599 46.072C173.631 47.096 173.647 48.12 173.647 49.144C173.647 50.84 173.599 52.36 173.503 53.704C171.007 54.92 168.207 55.528 165.103 55.528C163.663 55.528 162.207 55.368 160.735 55.048C159.263 54.728 157.839 54.12 156.463 53.224C155.247 52.424 154.239 51.496 153.439 50.44C152.671 49.352 152.063 48.248 151.615 47.128C151.167 45.976 150.863 44.856 150.703 43.768C150.543 42.68 150.463 41.704 150.463 40.84C150.463 39.56 150.607 38.232 150.895 36.856C151.215 35.448 151.695 34.12 152.335 32.872C152.975 31.592 153.791 30.424 154.783 29.368C155.775 28.312 156.943 27.48 158.287 26.872C159.919 26.136 161.647 25.768 163.471 25.768C165.391 25.768 167.119 26.152 168.655 26.92C170.191 27.688 171.439 28.744 172.399 30.088C173.327 31.368 173.903 32.792 174.127 34.36C174.383 35.928 174.511 37.768 174.511 39.88H161.071ZM163.807 30.952C163.135 30.952 162.495 31.24 161.887 31.816C161.279 32.36 160.879 33.336 160.687 34.744H166.975C166.847 33.464 166.463 32.52 165.823 31.912C165.215 31.272 164.543 30.952 163.807 30.952ZM179.045 28.072C180.133 27.208 181.301 26.616 182.549 26.296C183.797 25.944 185.061 25.768 186.341 25.768C187.269 25.768 188.181 25.848 189.077 26.008C190.005 26.168 190.885 26.376 191.717 26.632C191.781 28.584 191.813 30.184 191.813 31.432C191.845 32.648 191.861 33.592 191.861 34.264C191.861 35.224 191.845 35.912 191.813 36.328C191.781 36.712 191.749 37.08 191.717 37.432C191.653 37.432 191.493 37.4 191.237 37.336C190.981 37.272 190.677 37.208 190.325 37.144C189.973 37.08 189.589 37.032 189.173 37C188.789 36.936 188.405 36.904 188.021 36.904C187.445 36.904 186.949 36.984 186.533 37.144C186.149 37.272 185.957 37.544 185.957 37.96C185.957 38.312 186.085 38.648 186.341 38.968C186.597 39.256 186.901 39.56 187.253 39.88C187.637 40.168 188.037 40.456 188.453 40.744C188.901 41 189.317 41.24 189.701 41.464C190.565 42.04 191.365 42.824 192.101 43.816C192.869 44.776 193.253 46.056 193.253 47.656C193.253 49.064 192.933 50.264 192.293 51.256C191.685 52.248 190.901 53.064 189.941 53.704C188.981 54.344 187.893 54.808 186.677 55.096C185.493 55.384 184.325 55.528 183.173 55.528C182.725 55.528 182.213 55.512 181.637 55.48C181.061 55.448 180.469 55.384 179.861 55.288C179.285 55.192 178.709 55.08 178.133 54.952C177.557 54.792 177.029 54.6 176.549 54.376C176.389 53.832 176.277 53.256 176.213 52.648C176.149 52.008 176.117 51.384 176.117 50.776C176.117 50.488 176.117 50.136 176.117 49.72C176.149 49.304 176.181 48.888 176.213 48.472C176.245 48.024 176.293 47.592 176.357 47.176C176.421 46.76 176.485 46.408 176.549 46.12C176.901 46.28 177.301 46.456 177.749 46.648C178.229 46.808 178.725 46.968 179.237 47.128C179.749 47.288 180.245 47.432 180.725 47.56C181.237 47.656 181.717 47.704 182.165 47.704C182.805 47.704 183.301 47.576 183.653 47.32C184.005 47.064 184.181 46.712 184.181 46.264C184.181 45.88 184.069 45.544 183.845 45.256C183.621 44.936 183.349 44.648 183.029 44.392C182.709 44.104 182.357 43.864 181.973 43.672C181.589 43.448 181.237 43.256 180.917 43.096C180.309 42.776 179.685 42.424 179.045 42.04C178.405 41.656 177.829 41.192 177.317 40.648C176.805 40.072 176.389 39.384 176.069 38.584C175.749 37.784 175.589 36.808 175.589 35.656C175.589 34.312 175.845 32.968 176.357 31.624C176.901 30.28 177.797 29.096 179.045 28.072ZM196.85 20.728H203.426V26.296H207.122V39.064H203.33V45.784C203.33 47.096 203.442 47.976 203.666 48.424C203.89 48.84 204.402 49.048 205.202 49.048C205.426 49.048 205.73 49.032 206.114 49C206.498 48.968 206.786 48.92 206.978 48.856C207.042 49.08 207.074 49.544 207.074 50.248C207.074 50.92 207.074 51.608 207.074 52.312C207.074 52.92 207.074 53.48 207.074 53.992C207.074 54.472 207.058 54.808 207.026 55C206.642 55.064 206.21 55.112 205.73 55.144C205.282 55.208 204.834 55.256 204.386 55.288C203.97 55.32 203.57 55.336 203.186 55.336C202.834 55.368 202.546 55.384 202.322 55.384C201.17 55.384 200.226 55.16 199.49 54.712C198.754 54.264 198.178 53.672 197.762 52.936C197.346 52.168 197.058 51.32 196.898 50.392C196.738 49.432 196.658 48.456 196.658 47.464C196.658 47.08 196.658 46.52 196.658 45.784C196.69 45.016 196.706 44.216 196.706 43.384C196.738 42.552 196.77 41.752 196.802 40.984C196.834 40.184 196.85 39.544 196.85 39.064H193.97V26.296H196.85V20.728Z" fill="white"/>
<path d="M86.3124 42.745L85.5742 15.9553L104.589 28.7672L86.3124 42.745Z" fill="white" stroke="white"/>
</svg>
